<?xml version="1.0" encoding="utf-8"?>
<!-- Generator: Adobe Illustrator 21.0.0, SVG Export Plug-In . SVG Version: 6.00 Build 0)  -->
<svg version="1.1" id="Layer_1" xmlns="http://www.w3.org/2000/svg" xmlns:xlink="http://www.w3.org/1999/xlink" x="0px" y="0px"
	 viewBox="0 0 512 512" style="enable-background:new 0 0 512 512;" xml:space="preserve">
<g>
	<path d="M448.7,0c-16.4,0-32.4,6.3-44.7,18.7L192.4,229.6l-4.7,4.7l-1.3,6.7l-14.7,74.8l-6.7,31.4l31.4-6.7l74.8-14.7l6.7-1.3
		l4.7-4.7l210.9-211.6c24.6-24.6,24.6-64.8,0-89.4C481.1,6.3,465.1,0,448.7,0z M448.7,41.4c5,0,9.9,2.6,14.7,7.3
		c9.5,9.5,9.5,19.9,0,29.4L256.4,285l-36.7,7.3l7.3-36.7L434,48.7C438.8,44,443.7,41.4,448.7,41.4z M0.1,84.8V512h427.2V230.3
		L384.6,273v196.3H42.8V127.5h196.3l42.7-42.7H0.1z"/>
</g>
</svg>
